<svg width="20" height="20" viewBox="0 0 20 20" fill="none" xmlns="http://www.w3.org/2000/svg">
<path d="M10 1.66663C5.83333 1.66663 2.5 2.91663 2.5 4.58329V15.4166C2.5 17.0833 5.83333 18.3333 10 18.3333C14.1667 18.3333 17.5 17.0833 17.5 15.4166V4.58329C17.5 2.91663 14.1667 1.66663 10 1.66663ZM10 3.33329C13.6833 3.33329 15.8333 4.33329 15.8333 4.58329C15.8333 4.83329 13.6833 5.83329 10 5.83329C6.31667 5.83329 4.16667 4.83329 4.16667 4.58329C4.16667 4.33329 6.31667 3.33329 10 3.33329ZM4.16667 6.74996C5.58333 7.49996 7.66667 7.91663 10 7.91663C12.3333 7.91663 14.4167 7.49996 15.8333 6.74996V9.99996C15.8333 10.25 13.6833 11.25 10 11.25C6.31667 11.25 4.16667 10.25 4.16667 9.99996V6.74996ZM15.8333 15.4166C15.8333 15.6666 13.6833 16.6666 10 16.6666C6.31667 16.6666 4.16667 15.6666 4.16667 15.4166V12.1666C5.58333 12.9166 7.66667 13.3333 10 13.3333C12.3333 13.3333 14.4167 12.9166 15.8333 12.1666V15.4166Z" fill="currentColor"/>
</svg>
